<svg width="660" height="523" viewBox="0 0 660 523" fill="none" xmlns="http://www.w3.org/2000/svg">
<path d="M162.133 0.234612C157.602 0.323155 152.946 0.4221 148.363 0.698154C104.389 3.37002 58.0653 15.2555 9.06933 41.5315C5.43386 43.3127 2.67346 46.4899 1.42346 50.3388C0.173457 54.1878 0.538052 58.3804 2.43909 61.9534C4.33496 65.5315 7.60056 68.1826 11.4912 69.3023C15.3819 70.4221 19.559 69.9169 23.0694 67.9012C144.205 2.93723 242.309 33.2972 341.336 66.0315C390.852 82.4008 440.033 99.5008 491.363 104.302C542.701 109.099 596.144 100.958 650.963 67.4328C654.754 65.6099 657.598 62.2662 658.801 58.2298C659.999 54.1986 659.442 49.8443 657.26 46.2402C655.077 42.6412 651.478 40.1256 647.348 39.3183C643.218 38.511 638.937 39.485 635.562 42.0006C586.15 72.2192 540.624 79.0112 494.162 74.6672C447.699 70.3232 400.412 54.0166 350.668 37.5686C292.366 18.2926 230.095 -1.07678 162.135 0.235222L162.133 0.234612ZM162.133 208.835C157.602 208.923 152.946 209.022 148.363 209.303C104.389 211.97 58.0653 223.626 9.06933 249.902C5.43386 251.678 2.67346 254.855 1.42346 258.704C0.173457 262.553 0.538052 266.746 2.43909 270.324C4.33496 273.897 7.60056 276.548 11.4912 277.668C15.3819 278.787 19.559 278.282 23.0694 276.267C144.205 211.308 242.309 241.663 341.336 274.402C390.852 290.771 440.033 308.099 491.363 312.902C542.701 317.704 596.144 309.329 650.963 275.803C654.754 273.975 657.598 270.632 658.801 266.6C659.999 262.564 659.442 258.21 657.26 254.611C655.077 251.007 651.478 248.496 647.348 247.689C643.218 246.876 638.937 247.85 635.562 250.366C586.15 280.59 540.624 287.382 494.162 283.033C447.698 278.689 400.412 262.617 350.668 246.169C292.366 226.893 230.095 207.523 162.135 208.835L162.133 208.835ZM177.065 417.195C124.576 415.908 68.868 426.429 9.06533 458.497C5.42987 460.273 2.66946 463.45 1.41946 467.299C0.169459 471.154 0.534044 475.341 2.43508 478.919C4.33095 482.492 7.59655 485.143 11.4872 486.263C15.3779 487.388 19.555 486.883 23.0654 484.862C133.951 425.398 225.225 445.867 316.132 474.831C407.044 503.789 497.252 543.019 595.892 510.3C599.689 509.081 602.85 506.399 604.663 502.842C606.475 499.289 606.798 495.159 605.553 491.368C604.314 487.576 601.606 484.435 598.043 482.644C594.475 480.857 590.34 480.56 586.559 481.831C499.98 510.55 417.932 475.899 325.225 446.362C278.871 431.596 229.548 418.487 177.065 417.195V417.195ZM643.265 455.465C635.021 455.465 628.333 462.148 628.333 470.397C628.333 478.642 635.021 485.329 643.265 485.329C651.515 485.329 658.197 478.642 658.197 470.397C658.197 462.147 651.515 455.465 643.265 455.465Z" fill="white"/>
</svg>
